<?xml version="1.0" standalone="no"?>
<!DOCTYPE svg PUBLIC "-//W3C//DTD SVG 20010904//EN"
 "http://www.w3.org/TR/2001/REC-SVG-20010904/DTD/svg10.dtd">
<svg version="1.0" xmlns="http://www.w3.org/2000/svg"
 width="1019.000000pt" height="1019.000000pt" viewBox="0 0 1019.000000 1019.000000"
 preserveAspectRatio="xMidYMid meet">
<metadata>
Created by potrace 1.11, written by Peter Selinger 2001-2013
</metadata>
<g transform="translate(0.000000,1019.000000) scale(0.100000,-0.100000)"
fill="#000000" stroke="none">
<path d="M4750 10184 c0 -7 -17 -10 -42 -9 -24 1 -49 -3 -55 -8 -9 -6 -13 -6
-13 1 0 6 -7 9 -15 6 -8 -4 -12 -11 -8 -18 5 -8 3 -8 -8 0 -8 5 -25 9 -39 7
-14 -2 -41 -4 -60 -6 -19 -1 -41 -7 -49 -11 -10 -7 -12 -5 -6 5 7 12 6 12 -7
1 -9 -7 -41 -15 -71 -16 -29 -2 -59 -6 -65 -10 -7 -4 -12 -2 -12 6 0 10 -2 10
-8 0 -5 -7 -25 -13 -45 -14 -20 -1 -34 -5 -30 -11 3 -5 -4 -4 -15 2 -15 8 -23
8 -27 0 -4 -6 -13 -8 -21 -5 -8 3 -14 0 -14 -7 0 -8 -3 -8 -9 2 -5 8 -10 9
-12 2 -2 -5 -19 -11 -36 -13 -18 -1 -33 -7 -33 -13 0 -5 -5 -3 -10 5 -5 8 -10
10 -10 4 0 -6 -12 -11 -26 -11 -15 0 -30 -7 -35 -14 -7 -12 -9 -11 -9 1 0 13
-1 13 -10 0 -5 -8 -10 -11 -10 -6 0 5 -6 3 -14 -3 -11 -9 -15 -9 -19 1 -4 10
-7 10 -15 -1 -5 -7 -21 -13 -36 -13 -14 0 -26 -4 -26 -8 0 -7 -8 -8 -55 -11
-14 -1 -28 -5 -31 -10 -3 -5 -18 -9 -34 -9 -16 0 -32 -5 -35 -11 -4 -6 -13 -8
-20 -5 -7 2 -16 -1 -18 -8 -3 -7 -16 -12 -29 -11 -12 1 -35 -4 -50 -12 -16 -7
-28 -11 -28 -7 0 4 -7 1 -15 -6 -8 -7 -15 -9 -15 -5 0 4 -6 2 -13 -4 -8 -6
-17 -8 -20 -4 -4 3 -7 1 -7 -5 0 -6 -7 -9 -15 -6 -8 4 -15 1 -15 -7 0 -7 -3
-10 -6 -6 -4 3 -21 0 -38 -7 -17 -7 -37 -11 -45 -8 -8 3 -11 0 -7 -7 4 -6 0
-12 -8 -12 -22 -2 -36 -6 -96 -31 -14 -5 -26 -8 -26 -6 -1 1 -12 -6 -25 -17
-13 -12 -19 -14 -14 -5 6 12 5 13 -6 3 -7 -7 -21 -13 -31 -13 -10 0 -18 -4
-18 -9 0 -9 -48 -26 -62 -23 -5 1 -8 -2 -8 -8 0 -6 -3 -9 -7 -9 -22 4 -33 -2
-27 -13 4 -7 4 -10 -1 -6 -4 4 -15 2 -23 -5 -13 -10 -14 -9 -7 3 5 9 0 8 -13
-4 -12 -11 -22 -15 -22 -10 0 5 -4 4 -8 -1 -4 -6 -26 -19 -49 -29 -24 -11 -43
-23 -43 -27 0 -5 -6 -6 -14 -3 -7 3 -21 -2 -30 -11 -9 -9 -25 -17 -35 -18 -11
0 -17 -5 -15 -9 3 -4 -7 -10 -21 -14 -14 -3 -25 -10 -25 -15 0 -5 -3 -8 -7 -7
-14 3 -63 -21 -63 -31 0 -5 -9 -8 -20 -6 -11 2 -18 0 -15 -5 3 -5 -4 -11 -15
-15 -11 -3 -20 -10 -20 -15 0 -5 -7 -6 -17 -3 -12 5 -14 3 -8 -7 6 -10 4 -12
-8 -7 -10 3 -17 3 -17 -2 0 -5 -13 -14 -30 -21 -16 -7 -27 -17 -23 -23 3 -5 1
-7 -4 -4 -6 4 -21 -2 -33 -13 -21 -19 -34 -24 -52 -21 -4 0 -10 -8 -13 -19 -4
-11 -11 -18 -16 -15 -5 3 -14 1 -21 -5 -38 -31 -108 -80 -108 -74 0 3 -9 -4
-21 -17 -11 -13 -18 -17 -14 -9 4 8 -2 5 -13 -7 -11 -12 -22 -19 -26 -16 -3 4
-6 1 -6 -5 0 -7 -7 -12 -16 -12 -8 0 -13 -4 -9 -9 3 -5 -4 -12 -15 -16 -11 -4
-35 -20 -52 -36 -18 -16 -36 -29 -41 -29 -4 0 -18 -11 -31 -25 -13 -14 -27
-25 -31 -25 -4 0 -18 -11 -31 -26 -13 -14 -24 -22 -24 -18 0 4 -7 -1 -15 -12
-8 -10 -15 -16 -15 -11 0 4 -18 -12 -40 -34 -22 -23 -40 -38 -40 -34 0 3 -7 0
-15 -9 -8 -8 -15 -20 -15 -27 0 -7 -3 -9 -7 -6 -3 4 -16 -5 -29 -18 -13 -14
-26 -25 -29 -25 -3 0 -59 -53 -123 -117 -64 -65 -121 -116 -126 -115 -5 2 -6
-4 -2 -13 3 -9 2 -13 -4 -10 -5 3 -17 -6 -26 -20 -9 -13 -20 -22 -25 -19 -5 3
-8 1 -7 -5 2 -5 -11 -22 -28 -38 -16 -15 -21 -22 -10 -14 12 8 2 -4 -21 -26
-23 -22 -40 -43 -37 -46 3 -3 -4 -8 -15 -12 -19 -6 -25 -17 -22 -37 0 -5 -2
-7 -7 -5 -4 1 -8 -2 -10 -8 -2 -5 -10 -14 -18 -18 -8 -5 -11 -13 -8 -19 4 -6
3 -8 -3 -5 -6 4 -19 -5 -29 -19 -11 -14 -28 -36 -39 -48 -11 -13 -29 -36 -40
-52 -11 -16 -30 -39 -41 -51 -12 -12 -19 -24 -16 -27 3 -3 0 -6 -6 -6 -7 0
-12 -5 -12 -10 0 -6 -5 -16 -10 -23 -41 -48 -50 -62 -50 -74 0 -8 -3 -12 -7
-10 -10 6 -27 -13 -31 -33 -2 -8 -8 -16 -13 -18 -5 -2 -9 -9 -9 -15 0 -7 -10
-23 -22 -37 -13 -14 -29 -37 -37 -52 -8 -16 -18 -28 -23 -28 -4 0 -8 -7 -8
-15 0 -8 -9 -24 -20 -35 -11 -11 -18 -20 -15 -20 3 0 -1 -10 -10 -23 -8 -13
-12 -27 -8 -31 5 -4 1 -6 -7 -4 -8 2 -15 -4 -15 -12 0 -17 -17 -40 -25 -35 -3
2 -7 -6 -7 -17 -1 -12 -8 -25 -15 -29 -7 -5 -8 -9 -3 -9 6 0 3 -5 -5 -10 -8
-5 -15 -13 -16 -17 -1 -19 -28 -63 -38 -63 -6 0 -4 -5 4 -10 13 -8 12 -10 -3
-10 -10 0 -16 -4 -13 -9 3 -5 -1 -14 -10 -21 -8 -7 -13 -19 -10 -27 3 -7 1
-13 -3 -13 -5 0 -14 -13 -20 -30 -5 -16 -14 -30 -20 -30 -5 0 -8 -9 -6 -20 2
-11 0 -18 -6 -15 -5 4 -9 -3 -9 -14 0 -12 -4 -21 -10 -21 -5 0 -10 -7 -10 -15
0 -8 -9 -30 -20 -50 -11 -19 -16 -35 -12 -35 4 0 -2 -7 -12 -15 -13 -10 -15
-15 -6 -15 9 0 7 -5 -6 -15 -10 -8 -16 -15 -11 -15 4 0 -1 -17 -12 -39 -11
-21 -17 -41 -14 -45 4 -3 1 -6 -6 -6 -8 0 -11 -7 -7 -15 3 -8 2 -15 -3 -15 -8
0 -24 -41 -25 -65 -1 -5 -7 -14 -14 -18 -7 -5 -10 -12 -7 -18 4 -5 1 -9 -5 -9
-6 0 -9 -4 -6 -9 4 -5 0 -12 -6 -14 -10 -4 -10 -6 0 -6 9 -1 9 -7 -3 -24 -8
-13 -12 -27 -8 -30 3 -4 1 -7 -6 -7 -8 0 -11 -8 -8 -20 3 -11 1 -20 -3 -20 -5
0 -12 -16 -16 -35 -3 -19 -10 -35 -15 -35 -5 0 -6 -7 -3 -15 4 -8 1 -15 -6
-15 -6 0 -8 -4 -5 -10 3 -5 2 -10 -3 -10 -5 0 -8 -15 -7 -34 0 -19 -3 -32 -7
-30 -4 3 -8 -7 -8 -21 0 -14 -4 -24 -9 -21 -5 4 -8 -2 -7 -11 2 -10 -3 -33
-11 -50 -7 -18 -10 -33 -7 -33 4 0 0 -8 -7 -17 -11 -13 -11 -15 -1 -9 11 6 11
4 3 -13 -6 -12 -16 -30 -22 -42 -8 -17 -8 -19 3 -13 10 6 10 4 -1 -9 -7 -9
-10 -17 -6 -17 5 0 0 -10 -11 -22 -19 -21 -19 -21 0 -14 19 7 19 6 3 -12 -10
-11 -17 -23 -16 -28 4 -21 -2 -45 -9 -40 -5 3 -6 -9 -4 -26 4 -24 2 -29 -9
-23 -11 7 -12 6 -2 -6 9 -11 8 -20 -2 -39 -9 -17 -10 -30 -3 -44 7 -13 7 -16
-1 -12 -7 5 -11 -2 -11 -18 0 -35 -1 -38 -11 -58 -7 -13 -6 -18 3 -18 10 0 10
-2 1 -8 -7 -5 -14 -27 -15 -50 -1 -22 -4 -39 -8 -37 -4 3 -5 -11 -3 -30 2 -19
-1 -35 -6 -35 -6 0 -8 -7 -5 -15 4 -8 3 -23 -1 -32 -12 -29 -13 -53 -1 -53 7
0 8 -3 1 -8 -6 -4 -12 -27 -13 -52 -4 -70 -4 -74 -11 -85 -3 -5 -6 -43 -6 -82
0 -40 -3 -73 -7 -73 -5 0 -8 -5 -8 -11 0 -5 4 -8 8 -5 5 3 9 -1 9 -9 0 -8 -4
-12 -8 -9 -12 7 -6 -40 6 -48 6 -5 6 -8 -2 -8 -17 0 -16 -470 1 -470 7 0 7 -3
1 -8 -12 -9 -16 -52 -4 -52 5 0 4 -11 -1 -25 -5 -13 -6 -26 -2 -29 4 -2 7 -27
7 -55 0 -28 2 -51 5 -51 4 0 6 -28 6 -62 -1 -33 4 -68 11 -77 7 -10 8 -22 2
-33 -6 -11 -5 -19 1 -23 8 -5 7 -12 -2 -23 -8 -10 -9 -13 -1 -9 6 4 14 3 18
-3 3 -5 2 -10 -4 -10 -7 0 -7 -8 -2 -22 4 -13 6 -29 4 -35 -3 -7 -1 -13 4 -13
4 0 9 -11 9 -25 1 -16 -2 -22 -10 -18 -6 4 -5 -1 3 -10 8 -10 14 -31 13 -48 0
-16 3 -27 7 -25 4 3 7 -7 7 -22 0 -15 4 -45 9 -67 4 -22 8 -48 8 -57 1 -10 6
-18 12 -18 5 0 3 -5 -5 -10 -8 -5 -10 -10 -4 -10 7 0 15 -7 18 -16 4 -9 2 -13
-5 -8 -6 4 -5 -4 2 -17 7 -13 12 -30 11 -36 -2 -7 2 -21 7 -31 7 -13 6 -23 -2
-32 -9 -10 -9 -11 1 -6 8 5 12 1 12 -11 0 -11 6 -25 13 -32 9 -10 9 -12 0 -7
-9 5 -8 -1 2 -20 7 -14 12 -35 10 -45 -2 -11 0 -19 6 -19 5 0 9 -10 9 -23 0
-13 6 -29 12 -36 11 -11 10 -12 -2 -6 -10 6 -8 1 4 -13 13 -15 15 -22 6 -22
-10 0 -10 -3 0 -15 7 -8 9 -15 4 -15 -5 0 -3 -4 3 -8 7 -5 14 -21 15 -36 1
-15 8 -32 14 -37 7 -5 10 -19 7 -29 -3 -11 0 -20 6 -20 6 0 11 -13 11 -30 0
-16 5 -30 10 -30 6 0 10 -12 10 -26 0 -14 4 -23 9 -20 5 4 8 -2 6 -11 -1 -10
2 -27 8 -38 6 -11 12 -23 13 -27 1 -5 2 -9 4 -10 1 -2 3 -12 5 -23 2 -11 9
-21 15 -23 5 -2 8 -8 5 -13 -3 -4 1 -19 10 -33 9 -13 15 -28 14 -32 -2 -9 39
-105 67 -157 8 -15 12 -32 9 -37 -3 -6 1 -10 9 -10 10 0 13 -6 10 -15 -4 -8
-1 -15 6 -15 6 0 9 -4 6 -9 -3 -5 1 -14 10 -21 8 -7 13 -19 10 -27 -3 -7 -2
-13 2 -13 5 0 16 -19 27 -42 10 -24 22 -46 27 -49 5 -3 10 -16 11 -27 1 -12 5
-22 9 -22 4 0 8 -7 8 -16 0 -8 5 -12 10 -9 6 3 10 0 10 -8 0 -22 26 -68 34
-60 4 4 4 0 0 -10 -3 -10 -1 -17 6 -17 6 0 8 -4 5 -10 -3 -5 -1 -10 4 -10 6 0
11 -7 11 -15 0 -9 7 -18 15 -21 8 -4 13 -10 10 -14 -3 -4 9 -27 25 -51 16 -24
30 -49 30 -55 0 -7 7 -15 16 -18 8 -3 12 -10 9 -16 -3 -5 -2 -10 3 -10 5 0 15
-13 22 -30 7 -17 16 -30 21 -30 5 0 9 -7 9 -15 0 -8 5 -15 10 -15 6 0 10 -5
10 -11 0 -7 8 -18 18 -26 11 -10 12 -12 2 -8 -10 4 -9 2 3 -8 9 -8 17 -19 17
-26 0 -6 5 -11 10 -11 6 0 10 -6 10 -14 0 -8 7 -17 16 -20 9 -4 14 -9 11 -13
-4 -3 3 -14 15 -24 11 -11 17 -19 12 -19 -5 0 -1 -5 9 -11 9 -5 17 -17 17 -24
0 -8 5 -15 10 -15 6 0 10 -7 10 -16 0 -8 4 -12 10 -9 5 3 10 -1 10 -9 0 -9 5
-16 10 -16 6 0 10 -5 10 -11 0 -7 10 -20 22 -30 11 -11 18 -19 14 -19 -4 0 -1
-6 6 -14 7 -8 16 -12 21 -9 4 2 7 1 6 -4 -4 -16 13 -43 28 -43 8 0 11 -5 8
-10 -3 -6 -1 -10 5 -10 6 0 8 -5 5 -10 -3 -5 1 -10 10 -10 9 0 14 -4 10 -9 -3
-6 0 -13 7 -18 7 -4 26 -25 41 -46 16 -20 33 -35 38 -32 8 6 13 -8 10 -27 0
-5 6 -8 14 -8 8 0 15 -5 15 -10 0 -6 22 -33 50 -61 27 -28 50 -55 50 -60 0 -6
4 -7 10 -4 5 3 10 3 10 -2 0 -14 47 -63 54 -56 3 3 6 -1 6 -10 0 -10 7 -17 15
-17 8 0 15 -7 15 -15 0 -9 7 -18 17 -22 9 -3 32 -24 51 -45 19 -21 41 -38 50
-38 8 0 13 -3 9 -6 -6 -7 41 -54 54 -54 5 0 9 -7 9 -17 0 -9 3 -14 6 -10 3 3
16 -4 29 -16 25 -24 87 -79 128 -114 15 -13 31 -23 36 -23 5 0 12 -7 15 -16 3
-8 10 -13 14 -10 4 3 16 -6 26 -20 11 -13 25 -24 32 -24 8 0 14 -5 14 -11 0
-5 5 -7 10 -4 6 3 10 -1 10 -10 0 -9 5 -13 10 -10 6 3 10 -1 10 -10 0 -9 5
-13 10 -10 5 3 10 1 10 -4 0 -6 7 -11 15 -11 8 0 15 -4 15 -10 0 -5 7 -10 15
-10 8 0 15 -4 15 -10 0 -5 7 -10 15 -10 9 0 18 -7 21 -15 4 -8 9 -13 13 -10 4
2 14 -5 21 -16 8 -10 23 -19 33 -19 10 0 15 -5 12 -10 -3 -6 0 -10 8 -10 7 0
23 -9 35 -20 12 -11 26 -20 32 -20 5 0 10 -5 10 -11 0 -5 5 -7 10 -4 6 3 10 1
10 -5 0 -6 3 -9 7 -7 11 7 33 -19 25 -27 -3 -4 1 -4 10 -1 8 3 22 -1 31 -9 9
-9 20 -16 26 -16 6 0 11 -4 11 -10 0 -5 9 -10 21 -10 11 0 17 -5 14 -10 -3 -6
3 -10 14 -10 12 0 21 -4 21 -8 0 -5 22 -19 50 -32 27 -13 50 -27 50 -32 0 -4
9 -8 20 -8 11 0 20 -5 20 -11 0 -5 4 -7 10 -4 5 3 10 1 10 -5 0 -6 4 -8 10 -5
5 3 10 1 10 -4 0 -6 6 -11 14 -11 7 0 25 -9 39 -20 14 -11 35 -20 47 -20 13 0
19 -4 14 -11 -4 -7 -1 -10 7 -7 8 3 20 -2 27 -11 11 -13 12 -13 6 -1 -5 10 -1
9 14 -3 12 -11 26 -16 33 -11 7 4 10 3 6 -3 -3 -5 11 -15 31 -23 20 -7 40 -17
43 -22 3 -4 15 -10 27 -13 11 -2 30 -9 41 -15 12 -6 21 -8 21 -5 0 4 7 -1 16
-10 9 -9 23 -14 30 -11 8 3 14 1 14 -4 0 -5 10 -12 23 -15 12 -4 36 -13 52
-20 59 -25 94 -37 98 -34 2 2 11 -2 20 -9 9 -8 21 -11 27 -7 5 3 10 1 10 -5 0
-6 5 -8 10 -5 6 3 10 1 10 -4 0 -6 11 -11 24 -11 14 0 28 -5 31 -11 4 -6 13
-8 21 -5 8 3 14 1 14 -5 0 -6 7 -9 15 -5 8 3 15 1 15 -4 0 -6 11 -10 24 -10
14 0 27 -4 30 -9 5 -8 25 -13 94 -25 13 -3 30 -10 39 -18 10 -8 14 -8 10 -1
-5 7 5 6 24 -4 17 -8 43 -17 58 -18 14 -1 34 -6 43 -10 9 -4 21 -4 27 -1 5 3
11 2 13 -3 1 -5 23 -12 47 -16 23 -3 54 -10 67 -15 13 -5 24 -7 24 -4 0 4 8 0
17 -7 15 -12 16 -12 8 1 -7 13 -6 13 7 2 9 -7 32 -14 52 -15 20 -1 36 -5 36
-9 0 -3 14 -5 30 -4 17 1 30 -1 30 -6 0 -4 7 -4 17 -1 12 5 14 3 8 -8 -8 -12
-6 -12 8 0 9 7 17 9 17 4 0 -5 12 -10 28 -11 34 -1 54 -5 69 -15 6 -4 14 -3
18 3 4 6 11 7 17 4 11 -7 40 -12 93 -15 17 -2 36 -7 43 -12 8 -6 12 -5 12 2 0
7 5 9 13 4 20 -13 49 -14 41 -2 -3 6 4 5 17 -3 15 -9 50 -14 92 -13 39 0 67
-4 67 -10 0 -5 5 -3 10 5 5 8 10 10 10 5 0 -6 13 -11 30 -11 16 -1 28 2 25 6
-3 5 9 3 25 -3 25 -10 33 -9 40 3 7 10 10 11 10 3 0 -10 44 -13 185 -13 141 0
185 3 185 13 0 8 3 8 8 1 9 -13 104 -15 95 -1 -3 5 4 4 15 -2 14 -7 23 -8 27
-1 4 7 13 6 27 -1 11 -6 18 -7 15 -2 -3 5 20 9 54 8 33 -1 62 2 64 5 2 3 18 5
34 4 17 -1 33 1 35 4 2 4 29 7 60 6 30 0 53 3 50 7 -2 4 8 6 23 5 16 -2 38 0
51 5 15 6 22 5 22 -4 0 -7 3 -8 8 -2 4 6 18 12 32 14 14 2 30 4 35 5 6 1 16 6
24 10 10 7 12 5 6 -3 -6 -10 -3 -11 14 -2 12 7 26 9 31 6 6 -3 10 -2 10 4 0 6
14 9 30 7 17 -2 33 0 36 5 3 5 15 9 27 9 38 0 57 3 57 10 0 3 11 7 25 8 53 4
60 5 70 12 6 4 18 6 28 5 9 -2 17 1 17 6 0 6 4 8 9 4 5 -3 12 -1 15 4 3 5 15
7 26 4 11 -3 20 -1 20 4 0 5 12 9 28 8 15 0 37 6 50 13 12 8 22 11 22 7 0 -4
6 -3 13 3 6 6 14 10 17 10 13 -2 117 26 127 34 7 6 20 8 28 4 9 -3 13 -2 10 4
-5 9 23 15 48 11 4 0 7 4 7 11 0 6 3 9 6 6 3 -4 20 0 39 7 18 8 35 11 39 8 3
-4 6 -1 6 6 0 7 5 9 10 6 6 -3 10 -1 10 5 0 6 5 8 10 5 6 -3 10 -2 10 4 0 6 7
8 15 5 8 -4 15 -1 15 6 0 6 5 8 10 5 6 -4 17 -1 25 5 8 6 19 9 25 5 5 -3 10
-1 10 4 0 6 7 11 15 11 8 0 15 4 15 10 0 5 6 7 14 4 8 -3 17 0 21 5 3 6 11 9
16 6 5 -4 9 -1 9 4 0 6 3 10 8 10 21 -4 32 2 26 13 -5 8 -2 9 10 5 9 -4 27 0
40 8 12 8 26 12 29 8 4 -3 7 -2 7 4 0 10 36 26 53 24 4 -1 7 4 7 11 0 6 3 8 7
5 3 -4 12 -2 20 4 7 6 13 8 13 5 0 -4 7 0 16 9 9 9 22 14 29 11 7 -2 21 4 30
14 10 11 22 17 26 14 5 -3 9 0 9 5 0 6 9 11 20 11 11 0 20 4 20 9 0 8 37 24
53 22 4 -1 7 3 7 8 0 8 21 17 44 19 5 0 13 7 18 16 5 9 13 14 19 11 5 -4 9 -2
9 3 0 4 16 14 35 22 19 8 35 17 35 22 0 4 7 8 15 8 8 0 15 5 15 11 0 5 5 7 10
4 6 -3 10 -1 10 5 0 6 5 8 10 5 6 -3 13 1 16 9 3 9 10 14 14 11 5 -3 13 3 19
12 5 10 12 17 15 16 16 -7 26 -1 26 15 0 14 2 15 10 2 8 -12 10 -12 10 -1 0 8
3 11 7 8 3 -4 13 2 20 13 8 11 18 18 22 15 5 -2 16 4 26 15 10 11 24 20 32 20
7 0 13 5 13 10 0 6 7 10 15 10 8 0 15 4 15 10 0 5 17 17 38 27 20 10 49 30 64
45 14 14 29 24 32 21 3 -3 8 2 12 11 3 9 10 13 15 10 5 -3 9 0 9 6 0 6 5 8 10
5 6 -3 10 1 10 10 0 9 5 13 10 10 6 -3 10 -1 10 4 0 6 7 11 16 11 8 0 12 5 9
10 -3 6 -1 10 5 10 11 0 82 53 121 90 9 8 34 29 54 45 21 17 48 40 62 53 13
12 28 22 33 22 6 0 10 7 10 17 0 9 3 13 7 10 3 -4 13 2 20 13 8 11 20 17 26
14 7 -4 9 -4 5 0 -7 9 39 56 54 56 5 0 6 5 3 10 -3 6 -3 10 2 10 14 0 73 57
73 70 0 8 3 11 6 7 8 -8 44 25 38 35 -3 4 0 8 6 8 6 0 25 15 43 32 17 18 35
32 40 30 5 -1 6 2 2 7 -3 6 17 32 45 59 27 26 50 54 50 61 0 7 3 10 8 8 4 -3
13 1 20 9 7 8 10 14 7 14 -3 0 11 16 31 35 21 20 32 40 28 46 -4 7 -3 9 4 5 6
-3 21 8 33 26 13 18 30 38 39 45 8 7 12 13 8 13 -4 0 5 13 20 29 41 45 53 60
51 67 0 4 6 11 15 16 9 5 14 13 11 18 -3 5 4 11 15 15 11 4 18 11 15 16 -4 5
1 12 9 15 9 3 14 10 11 14 -3 4 2 10 10 14 8 3 15 11 15 17 0 7 8 18 18 26 11
10 12 12 2 8 -10 -4 -9 -2 2 8 10 8 15 17 12 20 -3 3 4 10 15 17 12 6 21 17
21 25 0 8 5 15 10 15 6 0 10 6 10 13 0 6 11 25 25 41 14 16 25 35 25 42 0 7 8
18 18 23 9 6 13 11 7 11 -5 0 -3 5 5 10 8 5 15 13 16 17 1 15 46 83 55 83 4 0
6 7 3 15 -4 8 -1 15 6 15 6 0 8 5 5 10 -3 6 1 13 10 16 9 4 14 13 11 21 -3 8
-1 11 4 8 6 -3 10 0 10 9 0 8 3 16 8 18 9 4 46 80 44 91 -1 4 2 7 8 7 6 0 9 6
8 13 -2 6 3 11 10 9 8 -1 11 2 8 7 -4 5 0 15 7 23 8 7 12 18 10 25 -2 6 5 21
16 32 13 13 16 21 8 21 -9 0 -8 3 2 9 8 5 10 14 6 21 -5 9 -4 11 3 6 7 -4 14
3 18 19 3 13 10 23 15 20 4 -3 6 4 4 15 -2 11 0 20 6 20 5 0 8 6 7 13 -2 6 2
11 9 10 7 -2 10 6 8 18 -2 11 2 22 10 25 7 3 11 12 9 19 -3 7 -1 16 5 20 6 3
11 15 11 26 0 11 4 17 10 14 6 -3 7 1 4 9 -3 9 -1 16 6 16 6 0 9 4 5 9 -3 5
-1 12 5 16 6 4 8 11 5 16 -4 5 -2 9 2 9 5 0 10 10 10 22 1 13 8 27 15 33 7 5
14 19 16 30 5 37 8 47 19 53 5 4 9 15 7 24 -1 10 2 20 7 24 5 3 9 14 9 25 0
11 3 18 8 16 4 -3 8 9 9 26 1 17 8 34 15 39 7 4 9 8 4 8 -5 0 -3 6 3 13 6 8 8
17 4 20 -3 4 -1 13 5 20 7 8 9 17 5 20 -3 4 -1 7 6 7 7 0 9 5 6 10 -3 6 -3 16
2 23 4 6 8 18 10 26 1 8 8 18 15 22 11 7 10 9 -1 9 -11 0 -11 3 -1 15 6 8 9
19 5 25 -3 5 -2 10 4 10 6 0 8 7 5 15 -4 8 -1 15 4 15 6 0 9 9 7 20 -2 11 0
20 4 20 4 0 8 6 9 13 1 12 9 47 12 57 1 3 2 9 1 14 -1 4 6 20 15 33 9 14 11
22 5 19 -12 -8 -15 7 -3 18 4 4 7 11 8 14 1 4 5 27 10 52 4 25 7 48 6 53 -1 4
2 7 8 7 5 0 10 5 10 11 0 5 -6 7 -12 3 -10 -6 -9 -4 0 8 7 9 14 30 14 47 1 17
4 31 8 31 4 0 6 20 6 44 -1 24 2 42 5 40 10 -6 16 18 14 54 -1 17 3 32 9 32 6
0 4 5 -4 10 -9 6 -10 10 -3 10 6 0 10 9 8 20 -2 11 -1 20 3 20 4 0 8 21 9 45
1 25 7 53 15 62 7 9 8 14 2 10 -8 -4 -11 5 -10 28 0 19 4 35 7 35 8 0 5 33 -4
48 -6 8 -3 10 7 6 9 -3 16 -1 16 5 0 6 -6 11 -12 11 -9 0 -8 4 2 10 13 9 13
10 0 10 -9 0 -11 3 -4 8 5 4 9 26 9 50 -1 23 2 45 7 49 6 3 5 9 -2 13 -8 5 -9
13 -4 21 13 21 13 39 1 39 -8 0 -8 3 -2 8 16 11 19 46 3 36 -10 -6 -11 -5 -1
7 14 18 15 506 1 515 -4 3 -4 13 1 23 6 10 6 23 1 31 -5 9 -5 19 2 27 6 7 7
13 2 13 -5 0 -10 30 -12 68 -4 94 -6 115 -16 131 -7 10 -6 12 4 6 9 -6 11 -4
5 5 -4 7 -9 24 -10 39 -2 14 -6 51 -10 81 -4 30 -7 62 -7 70 -1 8 -5 21 -11
28 -6 8 -6 12 3 12 9 0 10 3 1 13 -6 8 -8 17 -4 20 3 4 1 7 -7 7 -10 0 -10 3
0 15 8 9 8 15 2 15 -6 0 -11 8 -11 18 -1 41 -8 82 -14 88 -4 4 -7 22 -7 41 0
20 -5 33 -12 33 -9 0 -8 4 2 10 8 5 10 10 3 10 -6 0 -10 8 -9 18 2 9 -3 34
-10 56 -8 21 -11 42 -8 47 3 5 0 9 -6 9 -6 0 -9 4 -6 9 4 5 0 12 -6 14 -10 4
-10 6 -1 6 9 1 8 11 -3 37 -8 20 -13 42 -10 50 3 7 1 14 -4 16 -5 2 -11 17
-13 33 -2 17 -8 29 -13 28 -5 -1 -9 14 -8 33 1 19 -2 34 -7 34 -5 0 -9 10 -9
23 0 13 -5 28 -12 35 -7 7 -9 12 -5 12 3 0 0 18 -8 41 -8 23 -12 46 -8 52 4 6
1 7 -7 2 -10 -6 -12 -4 -7 8 3 9 2 17 -3 19 -5 2 -11 12 -13 23 -9 45 -20 75
-28 75 -5 0 -6 7 -3 15 4 9 0 15 -7 15 -11 0 -11 3 1 10 13 8 13 10 -2 10 -11
0 -16 6 -13 20 2 11 0 20 -6 20 -5 0 -8 3 -7 8 1 4 -3 17 -10 30 -7 12 -9 22
-5 22 4 0 2 5 -5 12 -7 7 -12 20 -12 29 0 10 -5 19 -11 21 -5 2 -11 10 -13 18
-8 42 -19 70 -28 70 -5 0 -7 4 -3 9 3 5 1 12 -5 16 -6 4 -8 11 -5 16 4 5 1 9
-5 9 -6 0 -8 5 -5 10 3 6 1 10 -4 10 -6 0 -11 9 -11 20 0 11 -4 20 -9 20 -6 0
-8 9 -6 20 2 11 -1 19 -8 17 -6 -1 -12 4 -13 11 -1 6 -2 17 -3 23 0 5 -5 7
-11 4 -6 -3 -7 1 -4 9 3 9 1 16 -6 16 -6 0 -9 4 -6 9 3 4 -1 17 -9 27 -8 10
-15 27 -15 37 0 10 -4 15 -10 12 -5 -3 -10 1 -10 10 0 8 -11 33 -24 54 -14 21
-22 42 -19 45 4 3 1 6 -5 6 -7 0 -12 7 -12 16 0 8 -5 12 -10 9 -6 -4 -10 -3
-9 2 4 22 -2 43 -11 38 -5 -3 -10 3 -10 14 0 12 -3 21 -7 21 -5 0 -19 23 -32
50 -14 28 -29 50 -33 50 -4 0 -8 7 -8 15 0 9 -11 27 -25 41 -14 14 -23 30 -20
35 4 5 1 9 -4 9 -6 0 -11 7 -11 15 0 9 -7 18 -15 21 -8 4 -12 10 -9 15 3 5 1
9 -4 9 -5 0 -15 13 -22 30 -7 16 -16 27 -21 24 -5 -3 -9 2 -9 10 0 9 -5 16
-11 16 -5 0 -7 5 -4 10 3 6 2 10 -3 10 -5 0 -12 9 -15 21 -4 13 -10 18 -18 13
-7 -4 -10 -3 -6 3 4 6 0 16 -8 23 -8 7 -15 18 -15 24 0 6 -9 18 -20 26 -11 8
-20 18 -20 22 0 7 -21 36 -47 63 -7 8 -13 17 -13 22 0 5 -8 16 -17 24 -30 26
-63 69 -63 80 0 5 -4 7 -10 4 -5 -3 -10 1 -10 10 0 9 -4 13 -10 10 -5 -3 -10
3 -10 14 0 11 -9 22 -20 26 -11 4 -18 10 -15 15 3 4 -2 10 -10 14 -8 3 -15 13
-15 21 0 9 -3 14 -7 12 -5 -2 -18 7 -30 20 -12 13 -20 23 -17 23 2 0 -9 13
-25 29 -16 16 -27 32 -24 35 4 3 0 6 -7 6 -14 0 -50 37 -50 52 0 5 -11 14 -25
20 -13 6 -27 19 -31 30 -3 10 -10 16 -15 13 -5 -4 -9 1 -9 10 0 9 -4 13 -10
10 -5 -3 -10 1 -10 10 0 8 -11 21 -25 27 -14 6 -25 14 -25 18 0 12 -37 50 -43
44 -3 -3 -10 4 -17 15 -6 12 -15 19 -21 16 -5 -4 -9 -1 -9 4 0 13 -32 51 -43
51 -4 0 -23 16 -43 35 -19 19 -39 35 -44 35 -6 0 -10 7 -10 16 0 8 -5 12 -10
9 -5 -3 -10 -1 -10 6 0 7 -3 10 -6 6 -3 -3 -22 12 -42 34 -23 24 -39 35 -43
28 -4 -7 -9 -4 -13 9 -4 11 -16 22 -27 25 -13 4 -18 10 -13 18 4 8 3 10 -4 5
-7 -4 -12 -2 -12 3 0 6 -7 11 -15 11 -7 0 -18 6 -22 13 -4 8 -16 17 -26 20
-10 4 -15 12 -12 17 4 6 3 9 -2 8 -11 -4 -83 44 -83 55 0 4 -7 7 -15 7 -8 0
-15 5 -15 11 0 6 -7 8 -16 5 -8 -3 -13 -2 -11 2 5 9 -24 36 -44 40 -8 2 -15 8
-17 13 -2 5 -10 9 -18 9 -8 0 -14 5 -14 10 0 6 -7 10 -15 10 -8 0 -15 5 -15
10 0 6 -7 10 -15 10 -8 0 -15 5 -15 11 0 5 -4 7 -10 4 -5 -3 -10 0 -10 8 0 7
-7 14 -15 15 -8 1 -22 3 -30 4 -8 1 -12 5 -10 9 3 4 -8 13 -25 21 -16 7 -30
16 -30 20 0 5 -6 8 -13 8 -7 0 -22 8 -33 18 -19 17 -37 24 -61 25 -7 0 -11 5
-10 11 1 6 -4 10 -10 8 -7 -1 -13 2 -13 6 0 5 -16 14 -35 22 -19 8 -35 18 -35
23 0 5 -7 7 -15 3 -9 -3 -15 0 -15 10 0 10 -6 14 -14 11 -8 -3 -22 2 -33 12
-10 10 -24 16 -31 13 -6 -2 -12 1 -12 7 0 6 -7 11 -16 11 -9 0 -23 8 -31 18
-9 10 -11 11 -7 2 6 -11 2 -10 -13 3 -11 9 -27 17 -37 17 -10 0 -14 5 -10 12
4 6 3 8 -3 5 -5 -3 -30 4 -56 17 -25 13 -48 21 -51 18 -4 -3 -6 0 -6 6 0 7 -9
12 -19 12 -11 0 -26 7 -34 15 -12 11 -17 12 -20 2 -4 -9 -6 -9 -6 1 -1 6 -8
12 -17 12 -8 0 -13 4 -9 9 3 6 -4 8 -15 6 -11 -2 -20 1 -20 7 0 6 -9 8 -20 5
-12 -3 -20 0 -20 8 0 7 -12 12 -27 11 -16 0 -27 4 -26 10 1 6 -8 10 -20 9 -12
-1 -25 2 -28 7 -3 5 -12 11 -20 12 -63 14 -79 20 -79 28 0 6 -9 8 -20 5 -11
-3 -20 -1 -20 4 0 5 -3 8 -7 8 -19 -3 -33 2 -47 17 -10 10 -16 11 -16 3 0 -9
-3 -9 -15 1 -8 6 -19 9 -25 5 -5 -3 -10 -2 -10 4 0 5 -9 8 -20 6 -11 -2 -18 0
-15 6 5 7 -32 14 -57 10 -5 0 -8 3 -8 7 0 5 -7 9 -15 10 -8 1 -22 3 -30 4 -8
1 -15 5 -15 10 0 4 -5 8 -11 8 -5 0 -7 -6 -3 -12 6 -10 4 -10 -7 0 -7 6 -21
12 -31 12 -10 0 -18 6 -18 13 0 9 -3 8 -9 -2 -6 -9 -11 -10 -15 -2 -4 6 -18
11 -32 11 -13 0 -24 4 -24 8 0 4 -16 7 -35 7 -19 -1 -32 2 -29 7 3 5 -6 7 -20
4 -14 -3 -26 0 -26 5 0 5 -12 9 -26 9 -14 0 -35 5 -46 11 -16 8 -19 8 -13 -1
5 -9 3 -9 -11 -2 -11 5 -25 7 -33 4 -9 -3 -11 0 -6 8 6 10 4 12 -8 7 -10 -4
-28 -2 -41 3 -17 6 -26 5 -30 -3 -3 -9 -5 -9 -5 1 -1 7 -15 12 -37 12 -23 0
-33 4 -28 11 4 8 0 8 -15 0 -11 -7 -21 -8 -21 -3 0 5 -13 8 -30 7 -16 -1 -30
1 -30 4 0 9 -43 6 -58 -3 -7 -4 -10 -2 -7 6 4 9 -2 14 -15 15 -13 1 -18 -2
-13 -10 4 -8 2 -8 -9 1 -9 7 -20 12 -24 11 -27 -5 -84 2 -80 10 6 9 -37 7 -53
-3 -5 -4 -12 -2 -16 3 -3 5 -15 8 -26 6 -11 -2 -31 0 -45 5 -14 6 -23 6 -20 1
6 -9 -44 -8 -60 1 -16 9 -574 6 -574 -4 0 -5 -9 -4 -20 2 -15 8 -20 8 -20 -2
0 -9 -3 -9 -10 2 -5 8 -10 10 -10 4z m50 -174 c9 5 20 4 29 -3 10 -8 13 -9 8
-1 -5 9 65 12 273 11 154 0 280 -4 280 -9 0 -5 9 -4 20 2 11 6 20 7 20 2 0 -5
25 -8 56 -7 30 1 57 -2 59 -5 2 -3 18 -5 34 -4 18 1 31 -3 31 -9 0 -8 3 -8 8
-2 10 13 32 17 32 6 0 -6 9 -8 20 -6 11 2 20 -1 20 -6 0 -6 4 -7 10 -4 18 11
51 14 45 5 -3 -6 7 -8 24 -6 17 2 31 0 31 -4 0 -3 10 -6 23 -5 12 1 26 0 32
-3 5 -3 26 -6 47 -7 21 -1 41 -4 44 -8 4 -4 25 -7 46 -7 21 0 38 -3 38 -7 0
-5 16 -9 36 -10 20 -1 42 -7 50 -14 11 -9 14 -9 14 0 0 7 5 9 13 4 6 -4 23 -9
37 -11 13 -2 30 -7 36 -13 6 -5 13 -6 17 -3 3 3 15 0 27 -6 15 -8 20 -8 16 -1
-5 7 -1 9 8 5 9 -3 16 -10 16 -14 0 -5 10 -6 22 -2 11 3 19 1 16 -4 -4 -5 4
-10 15 -10 12 -1 35 -5 51 -8 16 -4 34 -8 40 -9 6 -1 13 -5 16 -9 3 -4 20 -8
38 -10 18 -1 32 -6 32 -10 0 -4 11 -8 25 -8 14 0 25 -6 25 -12 0 -9 4 -8 10 2
6 10 10 11 10 3 0 -7 9 -13 20 -13 11 0 20 -4 20 -9 0 -4 12 -7 26 -5 16 1 24
-2 21 -9 -3 -7 6 -12 22 -13 29 -1 154 -45 159 -56 2 -5 16 -8 32 -8 15 0 33
-7 40 -15 7 -8 16 -13 20 -10 5 3 11 1 15 -5 3 -5 15 -10 25 -10 10 0 20 -5
22 -10 2 -6 13 -12 26 -13 12 0 22 -5 22 -9 0 -4 9 -8 20 -8 11 0 20 -5 20
-12 0 -6 3 -8 7 -5 3 4 17 0 30 -8 13 -9 27 -13 32 -10 5 2 11 -2 15 -10 3 -8
15 -15 26 -15 11 0 20 -5 20 -12 0 -6 3 -9 6 -5 3 3 24 -5 45 -19 21 -13 48
-24 59 -24 12 0 18 -4 15 -10 -3 -5 1 -11 9 -11 9 -1 22 -2 29 -3 6 0 12 -8
12 -16 0 -9 8 -14 18 -12 9 2 17 -2 17 -8 0 -7 8 -9 20 -5 12 4 19 2 18 -3 -2
-6 0 -10 5 -11 4 0 17 -10 29 -21 12 -11 29 -20 38 -20 9 0 26 -9 38 -20 12
-12 22 -18 22 -16 0 5 64 -34 87 -54 7 -6 24 -15 37 -22 14 -6 23 -14 21 -18
-2 -4 1 -7 8 -7 19 0 99 -52 174 -113 7 -6 24 -15 38 -22 14 -6 25 -18 25 -25
0 -8 4 -12 8 -9 5 3 18 -3 28 -12 10 -10 27 -21 37 -25 10 -4 16 -11 12 -17
-3 -5 6 -12 20 -16 14 -3 25 -10 25 -15 0 -5 11 -14 25 -21 13 -6 22 -15 19
-19 -3 -5 4 -9 16 -9 12 0 19 -4 15 -9 -3 -5 3 -12 14 -16 11 -3 22 -12 25
-20 3 -8 11 -15 19 -15 7 0 29 -18 48 -40 19 -22 39 -40 44 -40 6 0 19 -11 29
-25 10 -13 24 -22 30 -18 6 3 8 3 4 -1 -8 -9 29 -49 55 -59 9 -3 17 -13 17
-22 0 -8 4 -15 10 -15 13 0 59 -48 52 -54 -3 -3 1 -6 9 -6 8 0 23 -13 34 -29
10 -16 23 -27 27 -25 4 3 13 -6 20 -20 6 -14 17 -26 25 -26 7 0 13 -5 13 -12
0 -6 18 -28 40 -49 22 -21 40 -43 40 -49 0 -6 5 -8 10 -5 6 3 10 0 10 -7 0 -8
9 -20 19 -28 11 -7 18 -17 15 -22 -3 -4 2 -8 10 -8 9 0 16 -4 16 -10 0 -5 9
-18 21 -29 13 -12 18 -25 13 -33 -4 -7 -3 -10 1 -5 10 9 47 -22 39 -34 -3 -5
2 -9 10 -9 9 0 16 -5 16 -10 0 -6 11 -23 24 -37 14 -15 22 -31 19 -36 -3 -6
-2 -8 3 -5 5 3 15 0 22 -8 7 -8 9 -14 5 -14 -4 -1 2 -9 14 -19 12 -10 19 -21
16 -25 -4 -3 -1 -6 5 -6 7 0 12 -6 12 -14 0 -8 7 -17 16 -20 9 -4 14 -9 11
-13 -4 -3 3 -14 15 -24 11 -11 18 -19 14 -19 -7 0 4 -15 42 -55 13 -14 18 -25
12 -25 -6 0 0 -11 14 -25 13 -13 27 -34 31 -45 3 -11 10 -20 14 -20 5 0 14
-13 21 -29 6 -16 22 -39 35 -51 13 -12 21 -28 18 -36 -3 -8 0 -14 6 -14 6 0
11 -7 11 -15 0 -8 5 -15 11 -15 5 0 7 -5 4 -10 -3 -6 1 -13 9 -16 9 -3 14 -10
11 -14 -3 -4 4 -19 15 -32 11 -14 16 -28 13 -32 -3 -3 -1 -6 5 -6 7 0 12 -7
12 -15 0 -8 5 -15 10 -15 6 0 10 -8 10 -19 0 -10 7 -24 15 -31 8 -7 15 -21 15
-31 0 -11 5 -19 11 -19 5 0 7 -4 4 -10 -3 -5 -2 -10 3 -10 6 0 15 -13 21 -30
5 -16 15 -30 20 -30 6 0 8 -6 5 -14 -3 -8 0 -17 5 -21 6 -3 9 -11 6 -16 -4 -5
-1 -9 4 -9 6 0 11 -9 11 -20 0 -11 4 -20 9 -20 5 0 12 -10 16 -22 10 -31 12
-37 15 -43 1 -3 3 -10 4 -15 0 -6 6 -14 11 -18 6 -4 12 -16 13 -27 2 -11 8
-21 12 -23 5 -2 6 -10 3 -18 -3 -9 1 -14 13 -14 16 0 17 -2 4 -10 -11 -7 -11
-10 -2 -10 7 0 11 -4 8 -9 -7 -10 16 -61 27 -61 5 0 6 -8 2 -19 -3 -10 1 -24
10 -31 8 -7 15 -18 15 -26 0 -7 5 -25 12 -41 6 -15 11 -31 10 -35 -1 -5 2 -8
8 -8 5 0 7 -6 4 -14 -3 -8 -1 -17 5 -20 6 -4 7 -14 4 -23 -4 -11 -3 -14 5 -9
8 5 12 -2 12 -23 0 -16 5 -33 10 -36 6 -4 8 -11 5 -16 -4 -5 -1 -9 4 -9 6 0
11 -5 11 -11 0 -5 -6 -7 -12 -3 -8 5 -7 1 2 -10 8 -10 16 -27 17 -39 2 -12 11
-32 19 -45 9 -14 11 -21 5 -18 -15 9 -14 4 3 -30 8 -15 13 -31 10 -36 -3 -4
-2 -8 3 -8 4 0 9 -10 10 -23 1 -12 4 -31 7 -42 2 -11 5 -26 5 -33 1 -7 4 -11
9 -8 4 2 7 -16 7 -41 0 -25 5 -47 10 -49 6 -3 11 -21 12 -41 1 -20 6 -39 10
-42 4 -3 8 -15 9 -26 1 -18 6 -47 20 -125 3 -14 5 -34 5 -45 0 -11 5 -23 12
-27 9 -6 8 -8 -2 -8 -11 0 -11 -3 0 -17 12 -15 12 -16 -1 -8 -13 7 -13 6 -2
-7 7 -9 14 -33 15 -54 1 -22 6 -45 10 -51 5 -8 3 -13 -4 -13 -8 0 -8 -4 1 -15
7 -8 10 -28 8 -45 -3 -16 -2 -30 2 -30 3 0 5 -12 4 -27 0 -16 4 -31 10 -35 7
-5 7 -8 -2 -8 -8 0 -10 -5 -5 -12 4 -7 8 -42 9 -78 2 -36 3 -65 4 -65 1 0 3
-23 5 -52 1 -28 6 -56 9 -61 4 -6 2 -13 -4 -17 -6 -4 -7 -11 -4 -17 9 -15 11
-309 2 -315 -5 -2 -4 -12 2 -22 5 -10 7 -21 3 -25 -11 -10 -9 -110 2 -125 8
-12 7 -13 -4 -6 -11 6 -13 2 -9 -19 3 -14 2 -26 -1 -26 -3 0 -6 -21 -5 -47 0
-27 -4 -54 -10 -62 -9 -12 -8 -13 4 -6 13 8 13 7 1 -8 -11 -14 -11 -17 0 -18
10 0 11 -2 2 -6 -7 -2 -13 -9 -13 -14 0 -6 6 -7 13 -3 9 6 9 4 -1 -8 -7 -9
-13 -37 -14 -62 0 -27 -5 -43 -10 -40 -6 4 -5 -4 2 -16 8 -15 8 -20 1 -16 -6
4 -11 2 -11 -3 0 -6 6 -11 13 -11 9 0 8 -3 -2 -9 -7 -5 -11 -15 -9 -22 3 -8 0
-32 -6 -54 -7 -22 -12 -56 -11 -77 0 -20 -4 -34 -9 -30 -5 3 -7 -2 -3 -11 3
-9 2 -19 -3 -22 -4 -3 -6 -19 -4 -35 3 -17 1 -30 -4 -30 -6 0 -9 -14 -8 -30 1
-17 -2 -30 -7 -30 -5 0 -7 -7 -3 -15 3 -8 2 -15 -2 -15 -5 0 -9 -10 -10 -22
-1 -13 -3 -34 -6 -48 -2 -14 -5 -29 -5 -33 -1 -5 -4 -6 -8 -4 -5 3 -9 -14 -11
-36 -4 -68 -6 -77 -15 -77 -5 0 -7 -9 -4 -21 3 -11 0 -22 -7 -25 -7 -3 -12
-18 -11 -34 1 -17 -2 -27 -8 -23 -6 4 -8 -3 -4 -16 3 -14 0 -24 -9 -28 -10 -4
-12 -9 -4 -18 7 -9 6 -16 -5 -25 -9 -7 -14 -19 -11 -27 3 -7 1 -13 -5 -13 -6
0 -9 -6 -6 -13 3 -7 -1 -21 -9 -31 -7 -11 -11 -23 -8 -27 3 -5 -3 -20 -12 -34
-9 -14 -13 -25 -9 -25 4 0 2 -7 -5 -15 -6 -8 -9 -19 -5 -25 3 -5 1 -10 -5 -10
-6 0 -9 -4 -5 -9 3 -5 1 -12 -4 -15 -4 -3 -11 -19 -15 -36 -3 -17 -10 -29 -14
-26 -5 3 -8 -5 -7 -17 1 -12 -5 -30 -13 -39 -8 -10 -12 -18 -7 -18 4 0 2 -7
-5 -15 -6 -8 -9 -18 -6 -24 3 -5 1 -11 -5 -13 -6 -2 -11 -17 -11 -32 0 -17 -4
-23 -8 -16 -9 15 -18 1 -15 -22 2 -10 -1 -18 -6 -18 -6 0 -8 -4 -5 -9 4 -5 1
-11 -4 -13 -10 -3 -16 -21 -19 -51 -1 -5 -7 -5 -13 -1 -7 4 -10 4 -6 -1 4 -4
2 -15 -5 -23 -10 -13 -9 -14 3 -7 12 7 13 6 4 -6 -25 -31 -54 -91 -49 -100 4
-5 0 -9 -7 -9 -8 0 -14 -10 -15 -21 -1 -12 -9 -29 -17 -38 -8 -9 -16 -20 -18
-26 -2 -5 -7 -9 -11 -7 -5 1 -5 -2 -2 -8 4 -6 -1 -20 -10 -30 -9 -10 -14 -23
-11 -28 3 -6 -1 -12 -9 -16 -8 -3 -15 -12 -15 -21 0 -8 -5 -15 -11 -15 -5 0
-8 -4 -4 -9 3 -6 -3 -14 -12 -20 -10 -6 -14 -11 -9 -11 5 0 3 -7 -4 -15 -7 -8
-9 -15 -6 -15 6 0 -2 -11 -31 -45 -7 -7 -13 -20 -13 -28 0 -8 -7 -17 -15 -21
-8 -3 -15 -12 -15 -21 0 -8 -4 -15 -10 -15 -5 0 -10 -4 -10 -10 0 -5 -16 -34
-35 -64 -19 -29 -31 -57 -27 -61 4 -5 2 -5 -5 -1 -7 3 -14 -2 -18 -14 -3 -11
-11 -20 -16 -20 -5 0 -9 -7 -9 -15 0 -9 -7 -18 -15 -21 -8 -4 -13 -10 -10 -14
2 -4 -4 -15 -15 -25 -11 -10 -20 -24 -20 -32 0 -8 -4 -11 -10 -8 -5 3 -10 0
-10 -7 0 -8 -14 -28 -30 -47 -17 -18 -32 -38 -33 -44 -1 -6 -15 -24 -32 -41
-16 -17 -30 -34 -30 -38 0 -5 -7 -13 -15 -18 -8 -5 -11 -10 -7 -10 4 0 -10
-17 -31 -38 -21 -21 -37 -43 -34 -50 2 -7 0 -11 -5 -10 -11 4 -53 -39 -46 -46
4 -3 -2 -6 -12 -6 -10 0 -16 -3 -12 -6 3 -3 -5 -16 -19 -29 -13 -12 -24 -25
-24 -29 0 -11 -41 -47 -50 -44 -5 2 5 19 23 40 18 20 54 65 82 100 27 34 53
65 56 68 9 7 94 126 131 183 17 26 34 47 38 47 4 0 13 14 20 30 7 17 16 30 21
30 5 0 9 5 9 10 0 12 51 92 65 102 7 5 7 8 0 8 -6 0 -5 4 1 8 11 6 22 25 76
122 11 19 35 62 54 95 29 52 159 312 184 370 25 56 61 143 65 155 1 3 7 19 14
35 40 99 134 376 146 431 2 10 22 89 44 174 21 85 42 171 45 190 3 19 10 58
15 85 6 28 13 66 16 85 2 19 7 46 9 60 14 79 31 227 43 385 10 119 9 596 0
710 -13 147 -15 168 -20 215 -3 25 -8 59 -11 75 -3 17 -8 50 -10 75 -3 25 -8
56 -10 70 -3 13 -8 42 -12 64 -3 22 -7 43 -9 46 -2 3 -6 22 -9 42 -3 20 -15
77 -26 125 -11 48 -23 99 -26 113 -3 14 -21 79 -41 145 -19 66 -36 125 -38
130 -1 6 -7 22 -13 38 -7 15 -14 38 -16 50 -2 12 -11 38 -19 57 -25 63 -30 75
-33 88 -2 11 -53 140 -74 187 -86 193 -169 363 -228 465 -15 25 -27 47 -27 50
-3 17 -253 401 -301 462 -16 20 -38 48 -49 64 -29 39 -137 176 -155 194 -8 9
-42 47 -75 86 -74 85 -328 340 -414 414 -35 30 -73 63 -85 73 -12 10 -36 31
-55 45 -18 15 -45 38 -60 50 -14 13 -37 31 -51 40 -14 10 -59 42 -100 73 -319
236 -689 440 -1085 597 -179 71 -450 158 -585 187 -8 2 -53 13 -100 24 -47 11
-98 22 -115 25 -16 3 -65 12 -108 20 -43 8 -97 17 -120 20 -23 3 -53 8 -67 10
-44 8 -123 18 -175 21 -27 3 -77 7 -110 11 -110 13 -820 7 -820 -6 0 -1 -22
-3 -50 -5 -27 -1 -50 -4 -50 -5 0 -1 -16 -3 -35 -5 -45 -5 -108 -13 -140 -19
-14 -3 -45 -7 -70 -10 -62 -8 -85 -13 -240 -47 -74 -17 -144 -32 -155 -34 -34
-6 -257 -72 -332 -98 -40 -14 -74 -22 -77 -19 -4 3 -6 0 -6 -6 0 -7 -3 -11 -7
-10 -11 2 -66 -13 -78 -22 -5 -4 -39 -17 -75 -30 -36 -13 -87 -33 -115 -46
-27 -12 -79 -35 -115 -50 -116 -52 -436 -218 -450 -234 -3 -3 -26 -17 -52 -30
-27 -14 -48 -28 -48 -32 0 -5 -6 -8 -14 -8 -8 0 -21 -6 -28 -13 -7 -8 -24 -20
-38 -27 -13 -7 -29 -17 -34 -21 -6 -5 -36 -26 -67 -47 -76 -50 -217 -153 -240
-174 -11 -10 -21 -18 -24 -18 -3 0 -16 -9 -28 -20 -71 -63 -89 -78 -123 -105
-140 -110 -446 -421 -591 -600 -26 -33 -52 -65 -58 -71 -5 -6 -19 -23 -30 -38
-42 -59 -91 -122 -107 -140 -10 -11 -18 -25 -18 -32 0 -7 -4 -14 -9 -16 -39
-15 -433 -693 -414 -712 4 -3 1 -6 -5 -6 -7 0 -12 -4 -12 -10 0 -5 -13 -37
-29 -70 -16 -33 -27 -60 -24 -60 3 0 -5 -16 -16 -36 -12 -20 -23 -43 -25 -52
-2 -10 -11 -35 -20 -56 -10 -22 -19 -48 -21 -57 -2 -10 -8 -26 -14 -37 -10
-19 -62 -168 -65 -187 -1 -5 -4 -14 -7 -20 -4 -5 -18 -55 -33 -110 -15 -55
-31 -111 -36 -125 -9 -25 -35 -134 -44 -180 -2 -14 -14 -69 -25 -123 -11 -54
-20 -101 -20 -105 1 -4 0 -9 -1 -12 -3 -8 -8 -41 -15 -85 -3 -22 -7 -51 -10
-65 -2 -14 -7 -50 -10 -80 -3 -30 -7 -71 -10 -90 -15 -147 -20 -263 -19 -520
1 -162 4 -322 8 -355 3 -33 8 -82 11 -110 10 -101 14 -138 20 -173 3 -25 2
-32 -4 -22 -5 8 -7 18 -5 22 3 4 1 8 -3 8 -5 0 -8 18 -8 40 0 22 -2 40 -6 40
-3 0 -7 17 -8 37 -1 21 -4 52 -7 68 -3 17 -6 53 -7 82 0 28 -4 50 -7 48 -6 -4
-8 17 -10 100 -1 22 -6 45 -12 52 -7 9 -7 13 0 13 6 0 10 9 9 20 -1 11 -5 20
-10 20 -5 0 -3 8 4 17 12 15 12 16 -1 8 -13 -7 -13 -6 -2 7 9 11 10 18 2 23
-5 3 -10 15 -10 26 0 14 4 18 12 13 10 -6 10 -5 2 7 -8 9 -12 72 -13 177 0 90
-3 167 -6 173 -4 5 -2 9 3 9 5 0 8 24 6 52 -1 32 3 56 9 60 9 6 8 8 -2 8 -11
0 -11 3 0 17 10 11 10 14 1 9 -6 -4 -12 -3 -12 3 0 5 5 13 11 17 8 4 7 9 -2
15 -11 7 -11 9 1 9 13 0 13 1 0 10 -12 8 -12 10 -1 10 10 0 11 3 2 13 -6 8 -8
17 -4 21 4 4 8 27 9 52 1 25 5 48 8 51 3 3 0 15 -6 27 -10 20 -10 20 7 6 17
-14 18 -14 6 8 -6 12 -8 22 -4 22 4 0 8 17 9 38 0 20 4 57 8 82 9 57 16 106
19 145 1 17 6 36 10 43 5 6 5 17 2 22 -3 6 0 10 7 10 9 0 9 3 -2 10 -12 7 -12
10 -1 10 8 0 11 6 7 16 -3 9 -3 21 1 27 4 7 8 20 9 30 1 9 3 19 4 22 1 3 4 14
5 25 1 11 3 22 4 25 0 3 1 8 0 11 0 4 5 11 13 15 11 7 11 9 -1 9 -10 0 -10 5
3 25 11 16 12 25 5 25 -8 0 -8 4 1 15 6 8 9 19 5 25 -3 5 -2 10 4 10 6 0 8 7
5 15 -4 8 -2 15 4 15 6 0 9 11 7 25 -1 14 2 28 6 31 5 3 9 16 9 30 0 13 4 24
8 24 5 0 8 13 7 30 -1 16 2 27 7 24 4 -3 9 4 9 15 2 29 3 34 11 47 4 6 9 21
11 35 3 13 12 41 20 61 8 20 13 39 9 42 -3 3 -1 6 5 6 6 0 11 6 10 13 -1 31 4
48 12 43 5 -3 9 0 8 7 -1 36 4 58 12 52 6 -3 8 4 6 15 -2 11 1 20 6 20 6 0 7
5 4 10 -3 6 -1 10 6 10 7 0 9 3 6 7 -4 3 -1 13 6 21 10 13 9 14 -3 7 -9 -5 -8
0 4 13 11 12 16 22 12 22 -4 0 0 10 8 22 9 12 16 30 16 40 0 10 5 18 11 18 5
0 7 5 3 11 -3 6 -2 14 4 18 7 4 13 17 15 28 2 12 12 32 23 44 10 12 14 19 7
16 -6 -4 2 17 18 48 16 30 26 55 22 55 -5 0 0 5 11 11 15 9 16 13 5 20 -11 7
-10 9 3 9 11 0 15 5 12 14 -3 7 2 21 11 30 9 9 13 22 9 28 -4 7 -4 10 1 6 9
-8 35 35 35 58 0 7 8 18 18 23 9 6 13 11 8 11 -5 0 -3 7 4 15 6 8 9 19 5 25
-4 6 -2 9 4 8 10 -3 28 25 70 110 12 23 27 42 33 42 6 0 8 3 5 6 -4 4 2 19 13
34 11 16 20 32 20 37 0 6 9 18 20 28 11 10 20 24 20 32 0 7 5 13 11 13 5 0 7
5 4 10 -3 6 -2 10 4 10 6 0 18 16 27 35 9 19 20 35 25 35 5 0 9 7 9 15 0 8 5
15 10 15 6 0 10 5 10 11 0 6 6 16 13 24 30 32 45 54 40 59 -4 3 -1 6 6 6 7 0
9 5 6 10 -3 6 -1 10 5 10 6 0 8 5 4 12 -4 7 -3 8 5 4 6 -4 14 0 18 11 4 10 20
31 35 46 15 16 26 33 22 38 -3 5 2 9 10 9 9 0 16 4 16 10 0 9 25 42 57 76 7 7
13 18 13 24 0 6 4 8 10 5 5 -3 10 0 10 8 0 8 7 18 16 21 9 4 14 9 11 12 -3 3
12 24 34 45 22 21 38 39 35 39 -3 0 7 13 22 28 15 15 30 26 35 24 4 -2 7 4 7
12 0 8 10 23 23 33 12 10 30 29 40 43 9 13 17 22 17 18 0 -3 17 10 37 31 21
20 36 39 35 42 0 4 14 17 33 30 19 13 38 32 41 42 3 9 9 15 13 13 8 -6 47 35
43 46 -1 4 6 4 15 1 11 -4 14 -3 9 5 -4 7 -3 12 2 12 6 0 31 20 56 45 25 24
46 42 46 39 0 -3 18 13 40 34 21 22 42 37 45 34 3 -3 5 0 5 6 0 7 5 12 10 12
6 0 24 14 40 30 17 17 30 28 30 25 0 -3 8 3 18 13 30 28 63 47 75 44 7 -2 9
-1 5 3 -8 9 14 35 25 28 4 -2 10 3 13 11 3 9 10 13 15 10 5 -3 9 2 9 11 0 9 4
14 9 11 5 -3 23 8 40 24 17 17 31 25 31 19 0 -6 9 -1 20 12 10 13 19 20 20 15
0 -5 9 1 20 14 11 13 20 20 20 16 0 -4 10 2 22 13 11 11 24 18 28 16 5 -3 10
2 14 10 3 8 10 15 16 15 5 0 29 14 52 30 22 17 47 30 55 30 7 0 16 7 19 15 4
8 10 12 15 9 5 -3 9 0 9 5 0 6 3 10 8 9 12 -3 62 25 62 34 0 5 5 6 10 3 6 -3
10 -1 10 5 0 6 5 8 10 5 6 -3 10 -1 10 4 0 6 6 11 14 11 8 0 22 7 30 16 9 8
16 12 16 8 0 -4 9 1 21 12 12 10 22 18 23 17 4 -7 45 11 40 18 -3 5 2 6 10 3
9 -3 16 -1 16 6 0 6 5 8 10 5 6 -3 13 1 16 9 3 9 10 16 16 16 5 0 6 -5 3 -11
-4 -6 2 -5 13 2 12 7 19 16 17 19 -2 4 1 7 8 7 7 0 32 9 57 21 25 11 52 22 60
24 8 2 21 9 28 16 8 7 18 10 23 7 5 -4 9 -1 9 6 0 6 8 9 20 6 11 -3 23 0 27 5
4 7 1 8 -8 3 -8 -5 -11 -4 -6 1 5 5 12 9 15 9 4 0 13 4 21 9 10 7 12 5 6 -5
-5 -8 4 -3 20 11 16 14 25 19 21 12 -7 -11 -4 -11 15 0 13 7 26 15 29 18 3 3
16 6 30 8 13 1 28 8 32 15 4 6 8 8 8 4 0 -5 6 -5 13 0 13 8 18 10 43 12 8 0
13 5 10 9 -2 4 4 9 15 10 10 1 28 3 39 4 11 1 20 6 20 11 0 4 4 6 9 2 5 -3 16
1 24 9 8 8 17 13 20 10 3 -4 12 -2 19 2 7 5 24 10 38 12 13 2 28 9 32 15 5 9
8 8 8 -3 0 -12 2 -13 9 -1 5 7 14 10 20 7 6 -4 11 -2 11 4 0 6 4 9 9 5 5 -3
12 -1 16 4 3 6 12 8 20 4 8 -3 15 0 15 7 0 10 4 9 16 0 12 -11 15 -11 12 1 -2
9 5 14 20 13 12 -1 22 2 22 6 0 4 6 7 13 7 22 -2 92 15 105 26 8 6 12 5 12 -4
0 -9 3 -10 8 -4 8 12 29 18 55 17 9 0 17 3 17 7 0 4 20 7 44 7 24 -1 42 2 39
7 -5 8 -3 9 55 12 25 1 48 8 53 16 7 11 9 11 9 1 0 -8 5 -10 13 -5 12 8 50 13
100 15 15 0 27 4 27 8 0 5 16 7 35 6 21 -2 35 1 35 8 0 6 5 4 10 -4 5 -8 10
-10 10 -4 0 6 18 10 43 9 23 -1 48 3 55 8 6 5 12 6 12 1 0 -5 5 -2 10 6 6 9
10 10 10 3 0 -8 9 -9 28 -4 15 4 46 7 70 6 23 -1 42 2 42 7 0 5 8 4 18 -1 11
-6 24 -6 32 -1z m-4537 -5840 c3 -11 1 -18 -4 -14 -5 3 -9 12 -9 20 0 20 7 17
13 -6z m8389 -2488 c-23 -22 -42 -44 -42 -51 0 -7 -4 -9 -10 -6 -5 3 -10 2
-10 -3 0 -6 -8 -13 -17 -16 -10 -4 0 12 23 36 22 24 47 51 55 60 8 10 20 17
28 18 8 0 -4 -17 -27 -38z m-102 -107 c-7 -8 -17 -15 -23 -15 -6 0 -2 7 9 15
25 19 30 19 14 0z m-30 -39 c0 -2 -7 -7 -16 -10 -8 -3 -12 -2 -9 4 6 10 25 14
25 6z"/>
</g>
</svg>
